<svg width="129" height="19" viewBox="0 0 129 19" fill="none" xmlns="http://www.w3.org/2000/svg">
<path d="M8.5 2V17" stroke="#29ABE2" stroke-width="2" stroke-linecap="round"/>
<path d="M16 9.64148L1 9.64148" stroke="#29ABE2" stroke-width="2" stroke-linecap="round"/>
<path d="M30.8864 15H29.4091L33.6818 3.36364H35.1364L39.4091 15H37.9318L34.4545 5.20455H34.3636L30.8864 15ZM31.4318 10.4545H37.3864V11.7045H31.4318V10.4545ZM44.3352 15.1818C43.608 15.1818 42.9659 14.9981 42.4091 14.6307C41.8523 14.2595 41.4167 13.7367 41.1023 13.0625C40.7879 12.3845 40.6307 11.5833 40.6307 10.6591C40.6307 9.74242 40.7879 8.94697 41.1023 8.27273C41.4167 7.59848 41.8542 7.07765 42.4148 6.71023C42.9754 6.3428 43.6231 6.15909 44.358 6.15909C44.9261 6.15909 45.375 6.25379 45.7045 6.44318C46.0379 6.62879 46.2917 6.84091 46.4659 7.07955C46.6439 7.31439 46.7822 7.50758 46.8807 7.65909H46.9943V3.36364H48.3352V15H47.0398V13.6591H46.8807C46.7822 13.8182 46.642 14.0189 46.4602 14.2614C46.2784 14.5 46.0189 14.714 45.6818 14.9034C45.3447 15.089 44.8958 15.1818 44.3352 15.1818ZM44.517 13.9773C45.0549 13.9773 45.5095 13.8371 45.8807 13.5568C46.2519 13.2727 46.5341 12.8807 46.7273 12.3807C46.9205 11.8769 47.017 11.2955 47.017 10.6364C47.017 9.98485 46.9223 9.41477 46.733 8.92614C46.5436 8.43371 46.2633 8.05114 45.892 7.77841C45.5208 7.50189 45.0625 7.36364 44.517 7.36364C43.9489 7.36364 43.4754 7.50947 43.0966 7.80114C42.7216 8.08902 42.4394 8.48106 42.25 8.97727C42.0644 9.4697 41.9716 10.0227 41.9716 10.6364C41.9716 11.2576 42.0663 11.822 42.2557 12.3295C42.4489 12.8333 42.733 13.2348 43.108 13.5341C43.4867 13.8295 43.9564 13.9773 44.517 13.9773ZM54.2727 15.1818C53.5455 15.1818 52.9034 14.9981 52.3466 14.6307C51.7898 14.2595 51.3542 13.7367 51.0398 13.0625C50.7254 12.3845 50.5682 11.5833 50.5682 10.6591C50.5682 9.74242 50.7254 8.94697 51.0398 8.27273C51.3542 7.59848 51.7917 7.07765 52.3523 6.71023C52.9129 6.3428 53.5606 6.15909 54.2955 6.15909C54.8636 6.15909 55.3125 6.25379 55.642 6.44318C55.9754 6.62879 56.2292 6.84091 56.4034 7.07955C56.5814 7.31439 56.7197 7.50758 56.8182 7.65909H56.9318V3.36364H58.2727V15H56.9773V13.6591H56.8182C56.7197 13.8182 56.5795 14.0189 56.3977 14.2614C56.2159 14.5 55.9564 14.714 55.6193 14.9034C55.2822 15.089 54.8333 15.1818 54.2727 15.1818ZM54.4545 13.9773C54.9924 13.9773 55.447 13.8371 55.8182 13.5568C56.1894 13.2727 56.4716 12.8807 56.6648 12.3807C56.858 11.8769 56.9545 11.2955 56.9545 10.6364C56.9545 9.98485 56.8598 9.41477 56.6705 8.92614C56.4811 8.43371 56.2008 8.05114 55.8295 7.77841C55.4583 7.50189 55 7.36364 54.4545 7.36364C53.8864 7.36364 53.4129 7.50947 53.0341 7.80114C52.6591 8.08902 52.3769 8.48106 52.1875 8.97727C52.0019 9.4697 51.9091 10.0227 51.9091 10.6364C51.9091 11.2576 52.0038 11.822 52.1932 12.3295C52.3864 12.8333 52.6705 13.2348 53.0455 13.5341C53.4242 13.8295 53.8939 13.9773 54.4545 13.9773ZM64.9602 4.61364V3.36364H73.6875V4.61364H70.0284V15H68.6193V4.61364H64.9602ZM77.0611 15.2045C76.508 15.2045 76.0062 15.1004 75.5554 14.892C75.1046 14.6799 74.7467 14.375 74.4815 13.9773C74.2164 13.5758 74.0838 13.0909 74.0838 12.5227C74.0838 12.0227 74.1823 11.6174 74.3793 11.3068C74.5762 10.9924 74.8395 10.7462 75.169 10.5682C75.4986 10.3902 75.8622 10.2576 76.2599 10.1705C76.6615 10.0795 77.0649 10.0076 77.4702 9.95455C78.0005 9.88636 78.4304 9.83523 78.7599 9.80114C79.0933 9.76326 79.3357 9.70076 79.4872 9.61364C79.6425 9.52652 79.7202 9.375 79.7202 9.15909V9.11364C79.7202 8.55303 79.5668 8.11742 79.2599 7.80682C78.9569 7.49621 78.4967 7.34091 77.8793 7.34091C77.2391 7.34091 76.7372 7.48106 76.3736 7.76136C76.0099 8.04167 75.7543 8.34091 75.6065 8.65909L74.3338 8.20455C74.5611 7.67424 74.8641 7.26136 75.2429 6.96591C75.6255 6.66667 76.0421 6.45833 76.4929 6.34091C76.9474 6.2197 77.3944 6.15909 77.8338 6.15909C78.1141 6.15909 78.4361 6.19318 78.7997 6.26136C79.1671 6.32576 79.5213 6.46023 79.8622 6.66477C80.2069 6.86932 80.4929 7.17803 80.7202 7.59091C80.9474 8.00379 81.0611 8.55682 81.0611 9.25V15H79.7202V13.8182H79.652C79.5611 14.0076 79.4096 14.2102 79.1974 14.4261C78.9853 14.642 78.7031 14.8258 78.3509 14.9773C77.9986 15.1288 77.5687 15.2045 77.0611 15.2045ZM77.2656 14C77.7959 14 78.2429 13.8958 78.6065 13.6875C78.974 13.4792 79.2505 13.2102 79.4361 12.8807C79.6255 12.5511 79.7202 12.2045 79.7202 11.8409V10.6136C79.6634 10.6818 79.5384 10.7443 79.3452 10.8011C79.1558 10.8542 78.9361 10.9015 78.6861 10.9432C78.4399 10.9811 78.1993 11.0152 77.9645 11.0455C77.7334 11.072 77.5459 11.0947 77.402 11.1136C77.0535 11.1591 76.7277 11.233 76.4247 11.3352C76.1255 11.4337 75.883 11.5833 75.6974 11.7841C75.5156 11.9811 75.4247 12.25 75.4247 12.5909C75.4247 13.0568 75.5971 13.4091 75.9418 13.6477C76.2902 13.8826 76.7315 14 77.2656 14ZM89.6903 8.22727L88.4858 8.56818C88.41 8.36742 88.2983 8.17235 88.1506 7.98295C88.0066 7.78977 87.8097 7.63068 87.5597 7.50568C87.3097 7.38068 86.9896 7.31818 86.5994 7.31818C86.0653 7.31818 85.6203 7.44129 85.2642 7.6875C84.9119 7.92992 84.7358 8.23864 84.7358 8.61364C84.7358 8.94697 84.857 9.21023 85.0994 9.40341C85.3419 9.59659 85.7206 9.75758 86.2358 9.88636L87.5312 10.2045C88.3116 10.3939 88.893 10.6837 89.2756 11.0739C89.6581 11.4602 89.8494 11.9583 89.8494 12.5682C89.8494 13.0682 89.7055 13.5152 89.4176 13.9091C89.1335 14.303 88.7358 14.6136 88.2244 14.8409C87.7131 15.0682 87.1184 15.1818 86.4403 15.1818C85.5502 15.1818 84.8134 14.9886 84.2301 14.6023C83.6468 14.2159 83.2775 13.6515 83.1222 12.9091L84.3949 12.5909C84.5161 13.0606 84.7453 13.4129 85.0824 13.6477C85.4233 13.8826 85.8684 14 86.4176 14C87.0426 14 87.5388 13.8674 87.9062 13.6023C88.2775 13.3333 88.4631 13.0114 88.4631 12.6364C88.4631 12.3333 88.357 12.0795 88.1449 11.875C87.9328 11.6667 87.607 11.5114 87.1676 11.4091L85.7131 11.0682C84.9138 10.8788 84.3267 10.5852 83.9517 10.1875C83.5805 9.78598 83.3949 9.28409 83.3949 8.68182C83.3949 8.18939 83.5331 7.75379 83.8097 7.375C84.09 6.99621 84.4706 6.69886 84.9517 6.48295C85.4366 6.26705 85.9858 6.15909 86.5994 6.15909C87.4631 6.15909 88.1411 6.34848 88.6335 6.72727C89.1297 7.10606 89.482 7.60606 89.6903 8.22727ZM93.1179 11.8182L93.0952 10.1591H93.3679L97.1861 6.27273H98.8452L94.777 10.3864H94.6634L93.1179 11.8182ZM91.8679 15V3.36364H93.2088V15H91.8679ZM97.4134 15L94.0043 10.6818L94.9588 9.75L99.1179 15H97.4134Z" fill="#29ABE2"/>
</svg>
