<svg width="218" height="55" viewBox="0 0 218 55" fill="none" xmlns="http://www.w3.org/2000/svg">
<rect width="218" height="55" rx="10" fill="#2A3647"/>
<path d="M29.8029 25.0742H26.5366C26.4769 24.6516 26.3551 24.2763 26.1712 23.9482C25.9872 23.6151 25.7511 23.3317 25.4627 23.098C25.1744 22.8643 24.8413 22.6854 24.4634 22.5611C24.0906 22.4368 23.6854 22.3746 23.2479 22.3746C22.4574 22.3746 21.7688 22.571 21.1822 22.9638C20.5955 23.3516 20.1406 23.9183 19.8175 24.6641C19.4943 25.4048 19.3327 26.3047 19.3327 27.3636C19.3327 28.4524 19.4943 29.3672 19.8175 30.108C20.1456 30.8487 20.603 31.408 21.1896 31.7859C21.7763 32.1637 22.4549 32.3526 23.2255 32.3526C23.658 32.3526 24.0582 32.2955 24.4261 32.1811C24.799 32.0668 25.1296 31.9002 25.418 31.6815C25.7063 31.4577 25.945 31.1868 26.1339 30.8686C26.3278 30.5504 26.462 30.1875 26.5366 29.7798L29.8029 29.7947C29.7184 30.4957 29.5071 31.1719 29.169 31.8232C28.8359 32.4695 28.386 33.0487 27.8192 33.5607C27.2575 34.0678 26.5863 34.4705 25.8058 34.7688C25.0302 35.0621 24.1527 35.2088 23.1733 35.2088C21.8111 35.2088 20.593 34.9006 19.5192 34.2841C18.4503 33.6676 17.6051 32.7752 16.9837 31.6069C16.3672 30.4386 16.0589 29.0241 16.0589 27.3636C16.0589 25.6982 16.3722 24.2812 16.9986 23.1129C17.625 21.9446 18.4751 21.0547 19.549 20.4432C20.6229 19.8267 21.831 19.5185 23.1733 19.5185C24.0582 19.5185 24.8786 19.6428 25.6342 19.8913C26.3949 20.1399 27.0685 20.5028 27.6552 20.9801C28.2418 21.4524 28.7191 22.0316 29.087 22.7177C29.4599 23.4038 29.6985 24.1893 29.8029 25.0742ZM32.0588 35V23.5455H35.1387V25.544H35.258C35.4668 24.8331 35.8173 24.2962 36.3095 23.9332C36.8017 23.5653 37.3684 23.3814 38.0098 23.3814C38.1689 23.3814 38.3404 23.3913 38.5243 23.4112C38.7083 23.4311 38.8699 23.4585 39.0091 23.4933V26.3121C38.8599 26.2674 38.6536 26.2276 38.3901 26.1928C38.1266 26.158 37.8855 26.1406 37.6667 26.1406C37.1994 26.1406 36.7818 26.2425 36.4139 26.4464C36.051 26.6452 35.7626 26.9237 35.5488 27.2816C35.34 27.6396 35.2356 28.0522 35.2356 28.5195V35H32.0588ZM45.3385 35.2237C44.1602 35.2237 43.146 34.9851 42.2959 34.5078C41.4507 34.0256 40.7994 33.3445 40.3421 32.4645C39.8847 31.5795 39.656 30.533 39.656 29.3249C39.656 28.1467 39.8847 27.1126 40.3421 26.2227C40.7994 25.3327 41.4433 24.6392 42.2735 24.142C43.1088 23.6449 44.0882 23.3963 45.2117 23.3963C45.9674 23.3963 46.6709 23.5181 47.3222 23.7617C47.9784 24.0004 48.5502 24.3608 49.0374 24.843C49.5296 25.3253 49.9124 25.9318 50.1858 26.6626C50.4593 27.3885 50.596 28.2386 50.596 29.2131V30.0856H40.9237V28.1168H47.6056C47.6056 27.6594 47.5061 27.2543 47.3073 26.9013C47.1084 26.5483 46.8325 26.2724 46.4795 26.0735C46.1315 25.8697 45.7263 25.7678 45.2639 25.7678C44.7817 25.7678 44.3541 25.8796 43.9813 26.1033C43.6134 26.3221 43.325 26.6179 43.1162 26.9908C42.9074 27.3587 42.8005 27.7688 42.7955 28.2212V30.093C42.7955 30.6598 42.8999 31.1495 43.1088 31.5621C43.3225 31.9748 43.6233 32.293 44.0111 32.5167C44.3989 32.7404 44.8588 32.8523 45.3907 32.8523C45.7437 32.8523 46.0669 32.8026 46.3602 32.7031C46.6535 32.6037 46.9046 32.4545 47.1134 32.2557C47.3222 32.0568 47.4813 31.8132 47.5906 31.5249L50.5289 31.7188C50.3797 32.4247 50.074 33.0412 49.6116 33.5682C49.1542 34.0902 48.5626 34.4979 47.8367 34.7912C47.1159 35.0795 46.2831 35.2237 45.3385 35.2237ZM55.9355 35.2163C55.2046 35.2163 54.5534 35.0895 53.9816 34.8359C53.4099 34.5774 52.9575 34.1971 52.6244 33.695C52.2963 33.1879 52.1322 32.5565 52.1322 31.8008C52.1322 31.1644 52.249 30.63 52.4827 30.1974C52.7164 29.7649 53.0345 29.4169 53.4372 29.1534C53.8399 28.8899 54.2973 28.6911 54.8094 28.5568C55.3264 28.4226 55.8683 28.3281 56.4351 28.2734C57.1013 28.2038 57.6382 28.1392 58.0459 28.0795C58.4536 28.0149 58.7494 27.9205 58.9333 27.7962C59.1173 27.6719 59.2093 27.4879 59.2093 27.2443V27.1996C59.2093 26.7273 59.0601 26.3619 58.7618 26.1033C58.4685 25.8448 58.0509 25.7156 57.509 25.7156C56.9372 25.7156 56.4823 25.8423 56.1443 26.0959C55.8062 26.3445 55.5825 26.6577 55.4731 27.0355L52.5349 26.7969C52.684 26.1009 52.9774 25.4993 53.4149 24.9922C53.8524 24.4801 54.4166 24.0874 55.1077 23.8139C55.8037 23.5355 56.6091 23.3963 57.5239 23.3963C58.1602 23.3963 58.7693 23.4709 59.3509 23.62C59.9376 23.7692 60.4571 24.0004 60.9095 24.3136C61.3669 24.6268 61.7274 25.0295 61.9909 25.5217C62.2544 26.0089 62.3861 26.593 62.3861 27.2741V35H59.3733V33.4116H59.2838C59.0999 33.7695 58.8538 34.0852 58.5455 34.3587C58.2373 34.6271 57.8669 34.8384 57.4344 34.9925C57.0019 35.1417 56.5022 35.2163 55.9355 35.2163ZM56.8453 33.0238C57.3126 33.0238 57.7252 32.9318 58.0832 32.7479C58.4411 32.5589 58.722 32.3054 58.9259 31.9872C59.1297 31.669 59.2316 31.3086 59.2316 30.9059V29.6903C59.1322 29.755 58.9955 29.8146 58.8215 29.8693C58.6524 29.919 58.461 29.9663 58.2472 30.011C58.0335 30.0508 57.8197 30.0881 57.6059 30.1229C57.3921 30.1527 57.1982 30.18 57.0242 30.2049C56.6514 30.2596 56.3257 30.3466 56.0473 30.4659C55.7689 30.5852 55.5526 30.7468 55.3985 30.9506C55.2444 31.1495 55.1673 31.3981 55.1673 31.6964C55.1673 32.1289 55.324 32.4595 55.6372 32.6882C55.9553 32.9119 56.358 33.0238 56.8453 33.0238ZM70.9434 23.5455V25.9318H64.0454V23.5455H70.9434ZM65.6114 20.8011H68.7883V31.4801C68.7883 31.7734 68.833 32.0021 68.9225 32.1662C69.012 32.3253 69.1363 32.4371 69.2954 32.5018C69.4594 32.5664 69.6483 32.5987 69.8621 32.5987C70.0113 32.5987 70.1604 32.5863 70.3096 32.5614C70.4587 32.5316 70.5731 32.5092 70.6526 32.4943L71.1523 34.8583C70.9932 34.908 70.7694 34.9652 70.4811 35.0298C70.1927 35.0994 69.8422 35.1417 69.4296 35.1566C68.664 35.1864 67.9928 35.0845 67.4161 34.8509C66.8444 34.6172 66.3994 34.2543 66.0812 33.7621C65.7631 33.2699 65.6064 32.6484 65.6114 31.8977V20.8011ZM78.11 35.2237C76.9317 35.2237 75.9175 34.9851 75.0674 34.5078C74.2222 34.0256 73.5709 33.3445 73.1135 32.4645C72.6562 31.5795 72.4275 30.533 72.4275 29.3249C72.4275 28.1467 72.6562 27.1126 73.1135 26.2227C73.5709 25.3327 74.2148 24.6392 75.045 24.142C75.8802 23.6449 76.8596 23.3963 77.9832 23.3963C78.7389 23.3963 79.4424 23.5181 80.0937 23.7617C80.7499 24.0004 81.3216 24.3608 81.8089 24.843C82.301 25.3253 82.6839 25.9318 82.9573 26.6626C83.2307 27.3885 83.3675 28.2386 83.3675 29.2131V30.0856H73.6952V28.1168H80.377C80.377 27.6594 80.2776 27.2543 80.0787 26.9013C79.8799 26.5483 79.604 26.2724 79.251 26.0735C78.903 25.8697 78.4978 25.7678 78.0354 25.7678C77.5532 25.7678 77.1256 25.8796 76.7528 26.1033C76.3849 26.3221 76.0965 26.6179 75.8877 26.9908C75.6789 27.3587 75.572 27.7688 75.567 28.2212V30.093C75.567 30.6598 75.6714 31.1495 75.8802 31.5621C76.094 31.9748 76.3948 32.293 76.7826 32.5167C77.1704 32.7404 77.6302 32.8523 78.1622 32.8523C78.5152 32.8523 78.8383 32.8026 79.1317 32.7031C79.425 32.6037 79.676 32.4545 79.8849 32.2557C80.0937 32.0568 80.2528 31.8132 80.3621 31.5249L83.3003 31.7188C83.1512 32.4247 82.8454 33.0412 82.3831 33.5682C81.9257 34.0902 81.3341 34.4979 80.6082 34.7912C79.8873 35.0795 79.0546 35.2237 78.11 35.2237ZM95.4764 35.2237C94.3031 35.2237 93.2939 34.9751 92.4487 34.478C91.6085 33.9759 90.9622 33.2798 90.5098 32.3899C90.0623 31.5 89.8386 30.4759 89.8386 29.3175C89.8386 28.1442 90.0648 27.1151 90.5172 26.2301C90.9746 25.3402 91.6234 24.6467 92.4636 24.1495C93.3038 23.6474 94.3031 23.3963 95.4615 23.3963C96.4608 23.3963 97.3358 23.5778 98.0865 23.9407C98.8372 24.3036 99.4313 24.8132 99.8688 25.4695C100.306 26.1257 100.547 26.8963 100.592 27.7812H97.5943C97.5098 27.2095 97.286 26.7496 96.9231 26.4016C96.5652 26.0487 96.0953 25.8722 95.5137 25.8722C95.0215 25.8722 94.5914 26.0064 94.2235 26.2749C93.8606 26.5384 93.5772 26.9237 93.3734 27.4308C93.1696 27.9379 93.0676 28.5518 93.0676 29.2727C93.0676 30.0036 93.1671 30.625 93.3659 31.1371C93.5698 31.6491 93.8556 32.0394 94.2235 32.3079C94.5914 32.5763 95.0215 32.7106 95.5137 32.7106C95.8766 32.7106 96.2022 32.636 96.4906 32.4869C96.7839 32.3377 97.025 32.1214 97.214 31.8381C97.4078 31.5497 97.5346 31.2042 97.5943 30.8015H100.592C100.542 31.6765 100.304 32.4471 99.8762 33.1133C99.4537 33.7745 98.8695 34.2915 98.1238 34.6644C97.378 35.0373 96.4956 35.2237 95.4764 35.2237ZM107.802 35.2237C106.643 35.2237 105.641 34.9776 104.796 34.4854C103.956 33.9883 103.307 33.2972 102.85 32.4123C102.392 31.5224 102.164 30.4908 102.164 29.3175C102.164 28.1342 102.392 27.1001 102.85 26.2152C103.307 25.3253 103.956 24.6342 104.796 24.142C105.641 23.6449 106.643 23.3963 107.802 23.3963C108.96 23.3963 109.959 23.6449 110.799 24.142C111.645 24.6342 112.296 25.3253 112.753 26.2152C113.211 27.1001 113.439 28.1342 113.439 29.3175C113.439 30.4908 113.211 31.5224 112.753 32.4123C112.296 33.2972 111.645 33.9883 110.799 34.4854C109.959 34.9776 108.96 35.2237 107.802 35.2237ZM107.816 32.7628C108.343 32.7628 108.783 32.6136 109.136 32.3153C109.489 32.0121 109.755 31.5994 109.934 31.0774C110.118 30.5554 110.21 29.9613 110.21 29.2951C110.21 28.6289 110.118 28.0348 109.934 27.5128C109.755 26.9908 109.489 26.5781 109.136 26.2749C108.783 25.9716 108.343 25.82 107.816 25.82C107.285 25.82 106.837 25.9716 106.474 26.2749C106.116 26.5781 105.845 26.9908 105.661 27.5128C105.482 28.0348 105.393 28.6289 105.393 29.2951C105.393 29.9613 105.482 30.5554 105.661 31.0774C105.845 31.5994 106.116 32.0121 106.474 32.3153C106.837 32.6136 107.285 32.7628 107.816 32.7628ZM118.682 28.3778V35H115.505V23.5455H118.533V25.5664H118.667C118.921 24.9002 119.346 24.3732 119.942 23.9854C120.539 23.5927 121.262 23.3963 122.112 23.3963C122.908 23.3963 123.601 23.5703 124.193 23.9183C124.785 24.2663 125.244 24.7635 125.573 25.4098C125.901 26.0511 126.065 26.8168 126.065 27.7067V35H122.888V28.2734C122.893 27.5724 122.714 27.0256 122.351 26.6328C121.988 26.2351 121.488 26.0362 120.852 26.0362C120.424 26.0362 120.047 26.1282 119.718 26.3121C119.395 26.4961 119.142 26.7646 118.958 27.1175C118.779 27.4656 118.687 27.8857 118.682 28.3778ZM134.661 23.5455V25.9318H127.763V23.5455H134.661ZM129.329 20.8011H132.506V31.4801C132.506 31.7734 132.551 32.0021 132.64 32.1662C132.73 32.3253 132.854 32.4371 133.013 32.5018C133.177 32.5664 133.366 32.5987 133.58 32.5987C133.729 32.5987 133.878 32.5863 134.027 32.5614C134.176 32.5316 134.291 32.5092 134.37 32.4943L134.87 34.8583C134.711 34.908 134.487 34.9652 134.199 35.0298C133.911 35.0994 133.56 35.1417 133.147 35.1566C132.382 35.1864 131.711 35.0845 131.134 34.8509C130.562 34.6172 130.117 34.2543 129.799 33.7621C129.481 33.2699 129.324 32.6484 129.329 31.8977V20.8011ZM139.997 35.2163C139.266 35.2163 138.615 35.0895 138.043 34.8359C137.471 34.5774 137.019 34.1971 136.686 33.695C136.358 33.1879 136.194 32.5565 136.194 31.8008C136.194 31.1644 136.311 30.63 136.544 30.1974C136.778 29.7649 137.096 29.4169 137.499 29.1534C137.901 28.8899 138.359 28.6911 138.871 28.5568C139.388 28.4226 139.93 28.3281 140.497 28.2734C141.163 28.2038 141.7 28.1392 142.107 28.0795C142.515 28.0149 142.811 27.9205 142.995 27.7962C143.179 27.6719 143.271 27.4879 143.271 27.2443V27.1996C143.271 26.7273 143.122 26.3619 142.823 26.1033C142.53 25.8448 142.112 25.7156 141.57 25.7156C140.999 25.7156 140.544 25.8423 140.206 26.0959C139.868 26.3445 139.644 26.6577 139.535 27.0355L136.596 26.7969C136.746 26.1009 137.039 25.4993 137.476 24.9922C137.914 24.4801 138.478 24.0874 139.169 23.8139C139.865 23.5355 140.671 23.3963 141.585 23.3963C142.222 23.3963 142.831 23.4709 143.412 23.62C143.999 23.7692 144.519 24.0004 144.971 24.3136C145.428 24.6268 145.789 25.0295 146.052 25.5217C146.316 26.0089 146.448 26.593 146.448 27.2741V35H143.435V33.4116H143.345C143.161 33.7695 142.915 34.0852 142.607 34.3587C142.299 34.6271 141.928 34.8384 141.496 34.9925C141.063 35.1417 140.564 35.2163 139.997 35.2163ZM140.907 33.0238C141.374 33.0238 141.787 32.9318 142.145 32.7479C142.503 32.5589 142.784 32.3054 142.987 31.9872C143.191 31.669 143.293 31.3086 143.293 30.9059V29.6903C143.194 29.755 143.057 29.8146 142.883 29.8693C142.714 29.919 142.523 29.9663 142.309 30.011C142.095 30.0508 141.881 30.0881 141.667 30.1229C141.454 30.1527 141.26 30.18 141.086 30.2049C140.713 30.2596 140.387 30.3466 140.109 30.4659C139.83 30.5852 139.614 30.7468 139.46 30.9506C139.306 31.1495 139.229 31.3981 139.229 31.6964C139.229 32.1289 139.385 32.4595 139.699 32.6882C140.017 32.9119 140.42 33.0238 140.907 33.0238ZM154.088 35.2237C152.914 35.2237 151.905 34.9751 151.06 34.478C150.22 33.9759 149.574 33.2798 149.121 32.3899C148.674 31.5 148.45 30.4759 148.45 29.3175C148.45 28.1442 148.676 27.1151 149.129 26.2301C149.586 25.3402 150.235 24.6467 151.075 24.1495C151.915 23.6474 152.914 23.3963 154.073 23.3963C155.072 23.3963 155.947 23.5778 156.698 23.9407C157.449 24.3036 158.043 24.8132 158.48 25.4695C158.918 26.1257 159.159 26.8963 159.203 27.7812H156.206C156.121 27.2095 155.897 26.7496 155.534 26.4016C155.176 26.0487 154.707 25.8722 154.125 25.8722C153.633 25.8722 153.203 26.0064 152.835 26.2749C152.472 26.5384 152.189 26.9237 151.985 27.4308C151.781 27.9379 151.679 28.5518 151.679 29.2727C151.679 30.0036 151.778 30.625 151.977 31.1371C152.181 31.6491 152.467 32.0394 152.835 32.3079C153.203 32.5763 153.633 32.7106 154.125 32.7106C154.488 32.7106 154.814 32.636 155.102 32.4869C155.395 32.3377 155.636 32.1214 155.825 31.8381C156.019 31.5497 156.146 31.2042 156.206 30.8015H159.203C159.154 31.6765 158.915 32.4471 158.488 33.1133C158.065 33.7745 157.481 34.2915 156.735 34.6644C155.989 35.0373 155.107 35.2237 154.088 35.2237ZM167.33 23.5455V25.9318H160.432V23.5455H167.33ZM161.998 20.8011H165.175V31.4801C165.175 31.7734 165.22 32.0021 165.309 32.1662C165.399 32.3253 165.523 32.4371 165.682 32.5018C165.846 32.5664 166.035 32.5987 166.249 32.5987C166.398 32.5987 166.547 32.5863 166.696 32.5614C166.845 32.5316 166.96 32.5092 167.039 32.4943L167.539 34.8583C167.38 34.908 167.156 34.9652 166.868 35.0298C166.579 35.0994 166.229 35.1417 165.816 35.1566C165.051 35.1864 164.38 35.0845 163.803 34.8509C163.231 34.6172 162.786 34.2543 162.468 33.7621C162.15 33.2699 161.993 32.6484 161.998 31.8977V20.8011Z" fill="white"/>
<path d="M183 27.5L189 33.5L199 21.5" stroke="white" stroke-width="2" stroke-linecap="round" stroke-linejoin="round"/>
</svg>
